<svg width="37" height="42" viewBox="0 0 37 42" fill="none" xmlns="http://www.w3.org/2000/svg">
<path d="M6 18C6 10.8203 11.8203 5 19 5V5V34H6V18Z" fill="#A2A2A2"/>
<path d="M14 36H19V41V41C16.2386 41 14 38.7614 14 36V36Z" fill="#A2A2A2"/>
<path d="M1 29C1 26.2386 3.23858 24 6 24V24V34H3C1.89543 34 1 33.1046 1 32V29Z" fill="#A2A2A2"/>
<path d="M14 6C14 3.23858 16.2386 1 19 1V1V6H14V6Z" fill="#A2A2A2"/>
<path d="M31 17C31 10.3726 25.6274 5 19 5V5V34H31V17Z" fill="#A2A2A2"/>
<path d="M24 36H19V41V41C21.7614 41 24 38.7614 24 36V36Z" fill="#A2A2A2"/>
<path d="M36 29C36 26.2386 33.7614 24 31 24V24V34H34C35.1046 34 36 33.1046 36 32V29Z" fill="#A2A2A2"/>
<path d="M24 6C24 3.23858 21.7614 1 19 1V1V6H24V6Z" fill="#A2A2A2"/>
</svg>
