<svg width="46" height="36" viewBox="0 0 46 36" fill="none" xmlns="http://www.w3.org/2000/svg">
<rect x="1" y="1" width="44" height="34" rx="5" fill="#A2A2A2"/>
<rect x="4" y="4" width="38" height="28" rx="4" fill="white"/>
<rect x="11" y="4" width="7" height="7" fill="#A2A2A2"/>
<rect x="4" y="11" width="7" height="7" fill="#A2A2A2"/>
<rect x="11" y="18" width="7" height="7" fill="#A2A2A2"/>
<rect x="4" y="25" width="7" height="7" fill="#A2A2A2"/>
<rect x="25" y="4" width="7" height="7" fill="#A2A2A2"/>
<rect x="18" y="11" width="7" height="7" fill="#A2A2A2"/>
<rect x="25" y="18" width="7" height="7" fill="#A2A2A2"/>
<rect x="18" y="25" width="7" height="7" fill="#A2A2A2"/>
<rect x="39" y="4" width="4" height="7" fill="#A2A2A2"/>
<rect x="32" y="11" width="7" height="7" fill="#A2A2A2"/>
<rect x="39" y="18" width="4" height="7" fill="#A2A2A2"/>
<rect x="32" y="25" width="7" height="7" fill="#A2A2A2"/>
</svg>
