<svg width="50" height="50" viewBox="0 0 50 50" fill="none" xmlns="http://www.w3.org/2000/svg">
<path fill-rule="evenodd" clip-rule="evenodd" d="M1 25C1 11.7452 11.7452 1 25 1C38.2548 1 49 11.7452 49 25C49 38.2548 38.2548 49 25 49C11.7452 49 1 38.2548 1 25ZM27 13.5C27 14.8807 25.8807 16 24.5 16C23.1193 16 22 14.8807 22 13.5C22 12.1193 23.1193 11 24.5 11C25.8807 11 27 12.1193 27 13.5ZM27 22C27 21.4477 26.5523 21 26 21H25.5H24H21.5C20.6716 21 20 21.6716 20 22.5C20 23.3284 20.6716 24 21.5 24H24V36H20.5C19.6716 36 19 36.6716 19 37.5C19 38.3284 19.6716 39 20.5 39H24H27H30.5C31.3284 39 32 38.3284 32 37.5C32 36.6716 31.3284 36 30.5 36H27V22.5V22Z" fill="#A2A2A2"/>
</svg>
