<svg width="48" height="32" viewBox="0 0 48 32" fill="none" xmlns="http://www.w3.org/2000/svg">
<path fill-rule="evenodd" clip-rule="evenodd" d="M6 1C3.23858 1 1 3.23858 1 6V26C1 28.7614 3.23858 31 6 31H42C44.7614 31 47 28.7614 47 26V6C47 3.23858 44.7614 1 42 1H6ZM8 9C7.44772 9 7 9.44771 7 10V12C7 12.5523 7.44772 13 8 13H10C10.5523 13 11 12.5523 11 12V10C11 9.44771 10.5523 9 10 9H8ZM13 10C13 9.44771 13.4477 9 14 9H16C16.5523 9 17 9.44771 17 10V12C17 12.5523 16.5523 13 16 13H14C13.4477 13 13 12.5523 13 12V10ZM38 9C37.4477 9 37 9.44771 37 10V12C37 12.5523 37.4477 13 38 13H40C40.5523 13 41 12.5523 41 12V10C41 9.44771 40.5523 9 40 9H38ZM31 10C31 9.44771 31.4477 9 32 9H34C34.5523 9 35 9.44771 35 10V12C35 12.5523 34.5523 13 34 13H32C31.4477 13 31 12.5523 31 12V10ZM26 9C25.4477 9 25 9.44771 25 10V12C25 12.5523 25.4477 13 26 13H28C28.5523 13 29 12.5523 29 12V10C29 9.44771 28.5523 9 28 9H26ZM19 10C19 9.44771 19.4477 9 20 9H22C22.5523 9 23 9.44771 23 10V12C23 12.5523 22.5523 13 22 13H20C19.4477 13 19 12.5523 19 12V10ZM8 15C7.44772 15 7 15.4477 7 16V18C7 18.5523 7.44772 19 8 19H10C10.5523 19 11 18.5523 11 18V16C11 15.4477 10.5523 15 10 15H8ZM13 16C13 15.4477 13.4477 15 14 15H16C16.5523 15 17 15.4477 17 16V18C17 18.5523 16.5523 19 16 19H14C13.4477 19 13 18.5523 13 18V16ZM38 15C37.4477 15 37 15.4477 37 16V18C37 18.5523 37.4477 19 38 19H40C40.5523 19 41 18.5523 41 18V16C41 15.4477 40.5523 15 40 15H38ZM31 16C31 15.4477 31.4477 15 32 15H34C34.5523 15 35 15.4477 35 16V18C35 18.5523 34.5523 19 34 19H32C31.4477 19 31 18.5523 31 18V16ZM26 15C25.4477 15 25 15.4477 25 16V18C25 18.5523 25.4477 19 26 19H28C28.5523 19 29 18.5523 29 18V16C29 15.4477 28.5523 15 28 15H26ZM19 16C19 15.4477 19.4477 15 20 15H22C22.5523 15 23 15.4477 23 16V18C23 18.5523 22.5523 19 22 19H20C19.4477 19 19 18.5523 19 18V16ZM8 21C7.44772 21 7 21.4477 7 22V24C7 24.5523 7.44772 25 8 25H10C10.5523 25 11 24.5523 11 24V22C11 21.4477 10.5523 21 10 21H8ZM13 22C13 21.4477 13.4477 21 14 21H34C34.5523 21 35 21.4477 35 22V24C35 24.5523 34.5523 25 34 25H14C13.4477 25 13 24.5523 13 24V22ZM38 21C37.4477 21 37 21.4477 37 22V24C37 24.5523 37.4477 25 38 25H40C40.5523 25 41 24.5523 41 24V22C41 21.4477 40.5523 21 40 21H38Z" fill="#A2A2A2"/>
</svg>
