<svg width="29" height="43" viewBox="0 0 29 43" fill="none" xmlns="http://www.w3.org/2000/svg">
<rect x="8" y="1" width="12" height="26" rx="6" fill="#A2A2A2"/>
<rect x="4" y="39" width="19" height="3" rx="1.5" fill="#A2A2A2"/>
<rect x="13" y="34" width="3" height="5" fill="#A2A2A2"/>
<path fill-rule="evenodd" clip-rule="evenodd" d="M1.00909 21C1.00305 21.1659 1 21.3326 1 21.5C1 28.9558 7.04416 35 14.5 35C21.9558 35 28 28.9558 28 21.5C28 21.3326 27.997 21.1659 27.9909 21H24.9883C24.9961 21.1657 25 21.3324 25 21.5C25 27.299 20.299 32 14.5 32C8.70101 32 4 27.299 4 21.5C4 21.3324 4.00393 21.1657 4.0117 21H1.00909Z" fill="#A2A2A2"/>
<path d="M1 16.5C1 15.6716 1.67157 15 2.5 15V15C3.32843 15 4 15.6716 4 16.5V21H1V16.5Z" fill="#A2A2A2"/>
<path d="M25 16.5C25 15.6716 25.6716 15 26.5 15V15C27.3284 15 28 15.6716 28 16.5V21H25V16.5Z" fill="#A2A2A2"/>
</svg>
